<?xml version="1.0" encoding="UTF-8" standalone="no"?>
<svg
   xmlns:dc="http://purl.org/dc/elements/1.1/"
   xmlns:cc="http://creativecommons.org/ns#"
   xmlns:rdf="http://www.w3.org/1999/02/22-rdf-syntax-ns#"
   xmlns:svg="http://www.w3.org/2000/svg"
   xmlns="http://www.w3.org/2000/svg"
   xmlns:sodipodi="http://sodipodi.sourceforge.net/DTD/sodipodi-0.dtd"
   xmlns:inkscape="http://www.inkscape.org/namespaces/inkscape"
   inkscape:version="1.0 (4035a4fb49, 2020-05-01)"
   sodipodi:docname="thermometer-svgrepo-com.svg"
   xml:space="preserve"
   enable-background="new 0 0 64 64"
   viewBox="0 0 64 64"
   y="0px"
   x="0px"
   id="Layer_1"
   version="1.1"><metadata
   id="metadata42"><rdf:RDF><cc:Work
       rdf:about=""><dc:format>image/svg+xml</dc:format><dc:type
         rdf:resource="http://purl.org/dc/dcmitype/StillImage" /></cc:Work></rdf:RDF></metadata><defs
   id="defs40" /><sodipodi:namedview
   inkscape:current-layer="Layer_1"
   inkscape:window-maximized="1"
   inkscape:window-y="-8"
   inkscape:window-x="-8"
   inkscape:cy="29.249274"
   inkscape:cx="32"
   inkscape:zoom="13.28125"
   showgrid="false"
   id="namedview38"
   inkscape:window-height="1017"
   inkscape:window-width="1920"
   inkscape:pageshadow="2"
   inkscape:pageopacity="0"
   guidetolerance="10"
   gridtolerance="10"
   objecttolerance="10"
   borderopacity="1"
   bordercolor="#666666"
   pagecolor="#ffffff" />
<g
   transform="matrix(0.46,0,0,0.46,23.576035,1.6564706)"
   id="Thermometer">
	<path
   style="stroke-width:1.11589"
   id="path2"
   d="M 22.012547,54.174052 V 6.9176486 c 0,-3.362959 -2.458527,-6.09923429 -5.479244,-6.09923429 -3.021832,0 -5.480234,2.73627529 -5.480234,6.09923429 V 54.17405 c -2.7188828,1.823143 -4.3818956,4.906013 -4.3818956,8.198112 0,5.438853 4.4243956,9.863249 9.8621296,9.863249 5.437847,0 9.861029,-4.424396 9.861029,-9.863247 0,-3.290984 -1.662917,-6.37497 -4.381785,-8.198112 z M 16.533303,70.00363 c -4.207466,0 -7.6303485,-3.424 -7.6303485,-7.631466 0,-2.716744 1.4657215,-5.250374 3.8239505,-6.612545 0.345465,-0.199409 0.557946,-0.567761 0.557946,-0.966583 V 6.9176486 c 0,-2.1326897 1.456891,-3.8674531 3.248452,-3.8674531 1.790447,0 3.247463,1.7347634 3.247463,3.8674531 V 54.793033 c 0,0.398823 0.212469,0.767175 0.557945,0.966585 2.358213,1.362171 3.82384,3.896915 3.82384,6.612544 0,4.207468 -3.422897,7.631468 -7.629248,7.631468 z"
   clip-rule="evenodd"
   fill-rule="evenodd" />
	<path
   style="stroke-width:1.11589"
   id="path4"
   d="M 17.803967,57.848679 V 23.497439 H 14.91727 v 34.456357 c -1.617706,0.643758 -2.765736,2.216831 -2.765736,4.062846 0,2.415683 1.961738,4.377638 4.378755,4.377638 2.415683,0 4.377528,-1.961956 4.377528,-4.377638 0,-1.970662 -1.312847,-3.619166 -3.10385,-4.167963 z"
   clip-rule="evenodd"
   fill-rule="evenodd" />
</g>
<g
   id="g7">
</g>
<g
   id="g9">
</g>
<g
   id="g11">
</g>
<g
   id="g13">
</g>
<g
   id="g15">
</g>
<g
   id="g17">
</g>
<g
   id="g19">
</g>
<g
   id="g21">
</g>
<g
   id="g23">
</g>
<g
   id="g25">
</g>
<g
   id="g27">
</g>
<g
   id="g29">
</g>
<g
   id="g31">
</g>
<g
   id="g33">
</g>
<g
   id="g35">
</g>
<path
   style="stroke-width:1.93441"
   d="m 16.379163,36.472212 a 0.89120166,1.0496895 0 0 1 1.158562,-0.583626 l 3.131682,1.475863 a 2.673605,3.1490685 0 0 0 1.985598,0 l 1.807357,-0.852348 a 4.4560083,5.2484476 0 0 1 3.309922,0 l 1.80914,0.852348 a 2.673605,3.1490685 0 0 0 1.985598,0 l 1.807357,-0.852348 a 4.4560083,5.2484476 0 0 1 3.309922,0 l 1.80914,0.852348 a 2.673605,3.1490685 0 0 0 1.985597,0 l 3.131683,-1.475863 a 0.89120166,1.0496895 0 1 1 0.663054,1.948223 l -3.133465,1.475863 a 4.4560083,5.2484476 0 0 1 -3.309924,0 L 36.02303,38.460324 a 2.673605,3.1490685 0 0 0 -1.985597,0 l -1.80914,0.852348 a 4.4560083,5.2484476 0 0 1 -3.309923,0 l -1.807357,-0.852348 a 2.673605,3.1490685 0 0 0 -1.985597,0 l -1.80914,0.852348 a 4.4560083,5.2484476 0 0 1 -3.309923,0 l -3.131682,-1.475863 a 0.89120166,1.0496895 0 0 1 -0.495508,-1.364597 z m 0,6.298138 a 0.89120166,1.0496895 0 0 1 1.158562,-0.583628 l 3.131682,1.475864 a 2.673605,3.1490685 0 0 0 1.985598,0 l 1.807357,-0.852349 a 4.4560083,5.2484476 0 0 1 3.309922,0 l 1.80914,0.852349 a 2.673605,3.1490685 0 0 0 1.985598,0 l 1.807357,-0.852349 a 4.4560083,5.2484476 0 0 1 3.309922,0 l 1.80914,0.852349 a 2.673605,3.1490685 0 0 0 1.985597,0 l 3.131683,-1.475864 a 0.89120166,1.0496895 0 1 1 0.663054,1.948224 l -3.133465,1.475863 a 4.4560083,5.2484476 0 0 1 -3.309924,0 L 36.02303,44.758462 a 2.673605,3.1490685 0 0 0 -1.985597,0 l -1.80914,0.852347 a 4.4560083,5.2484476 0 0 1 -3.309923,0 l -1.807357,-0.852347 a 2.673605,3.1490685 0 0 0 -1.985597,0 l -1.80914,0.852347 a 4.4560083,5.2484476 0 0 1 -3.309923,0 L 16.874671,44.134946 A 0.89120166,1.0496895 0 0 1 16.379163,42.77035 Z m 0,6.298136 a 0.89120166,1.0496895 0 0 1 1.158562,-0.583627 l 3.131682,1.475863 a 2.673605,3.1490685 0 0 0 1.985598,0 l 1.807357,-0.852347 a 4.4560083,5.2484476 0 0 1 3.309922,0 l 1.80914,0.852347 a 2.673605,3.1490685 0 0 0 1.985598,0 l 1.807357,-0.852347 a 4.4560083,5.2484476 0 0 1 3.309922,0 l 1.80914,0.852347 a 2.673605,3.1490685 0 0 0 1.985597,0 l 3.131683,-1.475863 a 0.89120166,1.0496895 0 1 1 0.663054,1.948224 l -3.133465,1.475864 a 4.4560083,5.2484476 0 0 1 -3.309924,0 L 36.02303,51.056598 a 2.673605,3.1490685 0 0 0 -1.985597,0 l -1.80914,0.852349 a 4.4560083,5.2484476 0 0 1 -3.309923,0 l -1.807357,-0.852349 a 2.673605,3.1490685 0 0 0 -1.985597,0 l -1.80914,0.852349 a 4.4560083,5.2484476 0 0 1 -3.309923,0 l -3.131682,-1.475864 a 0.89120166,1.0496895 0 0 1 -0.495508,-1.364597 z m 0,6.298138 a 0.89120166,1.0496895 0 0 1 1.158562,-0.583627 l 3.131682,1.475863 a 2.673605,3.1490685 0 0 0 1.985598,0 l 1.807357,-0.852348 a 4.4560083,5.2484476 0 0 1 3.309922,0 l 1.80914,0.852348 a 2.673605,3.1490685 0 0 0 1.985598,0 l 1.807357,-0.852348 a 4.4560083,5.2484476 0 0 1 3.309922,0 l 1.80914,0.852348 a 2.673605,3.1490685 0 0 0 1.985597,0 l 3.131683,-1.475863 a 0.89120166,1.0496895 0 1 1 0.663054,1.948223 l -3.133465,1.475863 a 4.4560083,5.2484476 0 0 1 -3.309924,0 L 36.02303,57.354736 a 2.673605,3.1490685 0 0 0 -1.985597,0 l -1.80914,0.852347 a 4.4560083,5.2484476 0 0 1 -3.309923,0 l -1.807357,-0.852347 a 2.673605,3.1490685 0 0 0 -1.985597,0 l -1.80914,0.852347 a 4.4560083,5.2484476 0 0 1 -3.309923,0 L 16.874671,56.73122 a 0.89120166,1.0496895 0 0 1 -0.495508,-1.364596 z"
   id="path2-0" /></svg>
