<?xml version="1.0" encoding="UTF-8" standalone="no"?>
<svg
   xmlns:dc="http://purl.org/dc/elements/1.1/"
   xmlns:cc="http://creativecommons.org/ns#"
   xmlns:rdf="http://www.w3.org/1999/02/22-rdf-syntax-ns#"
   xmlns:svg="http://www.w3.org/2000/svg"
   xmlns="http://www.w3.org/2000/svg"
   xmlns:sodipodi="http://sodipodi.sourceforge.net/DTD/sodipodi-0.dtd"
   xmlns:inkscape="http://www.inkscape.org/namespaces/inkscape"
   version="1.1"
   id="Capa_1"
   x="0px"
   y="0px"
   width="470.34px"
   height="470.34px"
   viewBox="0 0 470.34 470.34"
   style="enable-background:new 0 0 470.34 470.34;"
   xml:space="preserve"
   sodipodi:docname="measure_PH.svg"
   inkscape:version="1.0 (4035a4fb49, 2020-05-01)"><metadata
   id="metadata913"><rdf:RDF><cc:Work
       rdf:about=""><dc:format>image/svg+xml</dc:format><dc:type
         rdf:resource="http://purl.org/dc/dcmitype/StillImage" /></cc:Work></rdf:RDF></metadata><defs
   id="defs911" /><sodipodi:namedview
   inkscape:document-rotation="0"
   pagecolor="#ffffff"
   bordercolor="#666666"
   borderopacity="1"
   objecttolerance="10"
   gridtolerance="10"
   guidetolerance="10"
   inkscape:pageopacity="0"
   inkscape:pageshadow="2"
   inkscape:window-width="1920"
   inkscape:window-height="1017"
   id="namedview909"
   showgrid="false"
   inkscape:zoom="1.7583025"
   inkscape:cx="235.17"
   inkscape:cy="192.91139"
   inkscape:window-x="-8"
   inkscape:window-y="-8"
   inkscape:window-maximized="1"
   inkscape:current-layer="Capa_1" />
<g
   id="g876">
	<path
   d="M235.169,470.34c99.262,0,180.016-80.756,180.016-180.018c0-41.055-28.979-101.928-86.129-180.933   C287.262,51.617,244.866,4.585,244.442,4.117C242.072,1.496,238.705,0,235.17,0c-3.534,0-6.903,1.496-9.273,4.117   c-0.423,0.469-42.819,47.5-84.613,105.272c-57.152,79.004-86.13,139.878-86.13,180.933   C55.152,389.584,135.907,470.34,235.169,470.34z M161.41,124.223c29.423-40.688,59.156-75.953,73.761-92.8   c14.578,16.813,44.227,51.977,73.628,92.621c53.244,73.6,81.387,131.099,81.387,166.278c0,85.477-69.541,155.018-155.017,155.018   c-85.477,0-155.017-69.541-155.017-155.018C80.152,255.173,108.251,197.736,161.41,124.223z"
   id="path874" />
</g>
<g
   id="g878">
</g>
<g
   id="g880">
</g>
<g
   id="g882">
</g>
<g
   id="g884">
</g>
<g
   id="g886">
</g>
<g
   id="g888">
</g>
<g
   id="g890">
</g>
<g
   id="g892">
</g>
<g
   id="g894">
</g>
<g
   id="g896">
</g>
<g
   id="g898">
</g>
<g
   id="g900">
</g>
<g
   id="g902">
</g>
<g
   id="g904">
</g>
<g
   id="g906">
</g>
<text
   transform="scale(0.97398269,1.0267123)"
   id="text850"
   y="331.66364"
   x="103.6723"
   style="font-size:210.021px;line-height:1.25;font-family:Arial;-inkscape-font-specification:Arial;letter-spacing:0px;word-spacing:0px;stroke-width:1.09385"
   xml:space="preserve"><tspan
     style="stroke-width:1.09385"
     y="331.66364"
     x="103.6723"
     id="tspan848"
     sodipodi:role="line">pH</tspan><tspan
     style="stroke-width:1.09385"
     id="tspan852"
     y="594.18982"
     x="103.6723"
     sodipodi:role="line" /></text></svg>
