<?xml version='1.0' encoding='utf-8'?>
<!DOCTYPE svg PUBLIC '-//W3C//DTD SVG 1.1//EN' 'http://www.w3.org/Graphics/SVG/1.1/DTD/svg11.dtd'>
<svg version="1.1" xmlns="http://www.w3.org/2000/svg" viewBox="0 0 512 512" xmlns:xlink="http://www.w3.org/1999/xlink" enable-background="new 0 0 512 512">
  <g>
    <g>
      <path d="m153,17.1l-135.6,135.6c-8.3,8.3-8.3,21.9-7.10543e-15,30.2 8.3,8.3 21.9,8.3 30.2,0l1.1-1.1 291.3,291.3c36.9,36.9 96.7,36.9 133.5,0 36.9-36.9 36.9-96.7 0-133.5l-291.3-291.2 1.1-1.1c8.3-8.3 8.3-21.9 0-30.2-8.4-8.4-21.9-8.4-30.3,3.55271e-15zm291.7,427.3c-20.9,20.9-55,20.9-75.9,0l-79.4-79.4 148.3-3.5 7,7c20.9,20.9 20.9,54.9 0,75.9zm-46.7-122.6l-148.3,3.5-172.2-172.2 75.9-75.9 244.6,244.6z"/>
    </g>
  </g>
</svg>
