<?xml version="1.0" encoding="UTF-8" standalone="no"?>
<svg
   xmlns:dc="http://purl.org/dc/elements/1.1/"
   xmlns:cc="http://creativecommons.org/ns#"
   xmlns:rdf="http://www.w3.org/1999/02/22-rdf-syntax-ns#"
   xmlns:svg="http://www.w3.org/2000/svg"
   xmlns="http://www.w3.org/2000/svg"
   xmlns:sodipodi="http://sodipodi.sourceforge.net/DTD/sodipodi-0.dtd"
   xmlns:inkscape="http://www.inkscape.org/namespaces/inkscape"
   width="192.36272mm"
   height="167.38704mm"
   viewBox="0 0 192.36272 167.38704"
   version="1.1"
   id="svg8"
   inkscape:version="1.0 (4035a4fb49, 2020-05-01)"
   sodipodi:docname="icon.svg">
  <defs
     id="defs2" />
  <sodipodi:namedview
     fit-margin-bottom="0"
     fit-margin-right="0"
     fit-margin-left="0"
     fit-margin-top="0"
     id="base"
     pagecolor="#ffffff"
     bordercolor="#666666"
     borderopacity="1.0"
     inkscape:pageopacity="0.0"
     inkscape:pageshadow="2"
     inkscape:zoom="0.35"
     inkscape:cx="355.91965"
     inkscape:cy="408.73442"
     inkscape:document-units="mm"
     inkscape:current-layer="layer1"
     inkscape:document-rotation="0"
     showgrid="false"
     inkscape:window-width="1920"
     inkscape:window-height="1017"
     inkscape:window-x="-8"
     inkscape:window-y="-8"
     inkscape:window-maximized="1" />
  <metadata
     id="metadata5">
    <rdf:RDF>
      <cc:Work
         rdf:about="">
        <dc:format>image/svg+xml</dc:format>
        <dc:type
           rdf:resource="http://purl.org/dc/dcmitype/StillImage" />
        <dc:title></dc:title>
      </cc:Work>
    </rdf:RDF>
  </metadata>
  <g
     transform="translate(-11.662926,-92.148253)"
     inkscape:label="Laag 1"
     inkscape:groupmode="layer"
     id="layer1">
    <text
       xml:space="preserve"
       style="font-size:50.8px;line-height:1.25;font-family:Arial;-inkscape-font-specification:Arial;letter-spacing:0px;word-spacing:0px;stroke-width:0.264583"
       x="50.648811"
       y="139.85118"
       id="text849"><tspan
         sodipodi:role="line"
         id="tspan847"
         x="50.648811"
         y="139.85118"
         style="stroke-width:0.264583" /></text>
    <text
       xml:space="preserve"
       style="font-size:74.0942px;line-height:1.25;font-family:Arial;-inkscape-font-specification:Arial;letter-spacing:0px;word-spacing:0px;stroke-width:0.385907"
       x="8.9856939"
       y="145.18639"
       id="text873"><tspan
         sodipodi:role="line"
         id="tspan871"
         x="8.9856939"
         y="145.18639"
         style="stroke-width:0.385907">aseko</tspan></text>
    <g
       id="g6"
       transform="matrix(0.26458333,0,0,0.26458333,38.855955,145.44511)">
      <g
         id="g4">
        <path
           id="path2"
           d="M 394.095,330.155 C 374.315,290.586 373.76,249.848 373.76,249.447 v -46.08 c 0,-64.93 -52.83,-117.76 -117.76,-117.76 -64.93,0 -117.76,52.83 -117.76,117.76 v 46.08 c 0,0.333 -0.478,40.986 -20.335,80.708 -3.968,7.936 -3.541,17.357 1.118,24.909 4.668,7.552 12.902,12.143 21.777,12.143 h 65.809 c -1.109,4.087 -1.809,8.354 -1.809,12.8 0,28.237 22.963,51.2 51.2,51.2 28.237,0 51.2,-22.963 51.2,-51.2 0,-4.446 -0.7,-8.713 -1.809,-12.8 H 371.2 c 8.875,0 17.109,-4.591 21.777,-12.143 4.668,-7.544 5.086,-16.973 1.118,-24.909 z M 256,405.606 c -14.114,0 -25.6,-11.486 -25.6,-25.6 0,-4.762 1.664,-8.977 3.934,-12.8 h 43.332 c 2.27,3.823 3.934,8.038 3.934,12.8 0,14.115 -11.486,25.6 -25.6,25.6 z m -115.2,-64 c 23.04,-46.08 23.04,-92.16 23.04,-92.16 v -46.08 c 0,-50.901 41.259,-92.16 92.16,-92.16 50.901,0 92.16,41.259 92.16,92.16 v 46.08 c 0,0 0,46.08 23.04,92.16 -23.04,0 -207.36,0 -230.4,0 z" />
      </g>
    </g>
    <g
       id="g12"
       transform="matrix(0.26458333,0,0,0.26458333,38.855955,145.44511)">
      <g
         id="g10">
        <path
           id="path8"
           d="m 428.809,108.16 -21.598,13.679 c 17.63,27.733 27.989,60.527 27.989,95.761 0,35.234 -10.359,68.028 -27.998,95.761 L 428.8,327.04 c 20.156,-31.701 32,-69.18 32,-109.44 0,-40.26 -11.844,-77.739 -31.991,-109.44 z" />
      </g>
    </g>
    <g
       id="g18"
       transform="matrix(0.26458333,0,0,0.26458333,38.855955,145.44511)">
      <g
         id="g16">
        <path
           id="path14"
           d="M 104.798,121.839 83.191,108.16 C 63.044,139.861 51.2,177.34 51.2,217.6 c 0,40.26 11.844,77.739 31.991,109.44 l 21.598,-13.679 C 87.159,285.628 76.8,252.834 76.8,217.6 c 0,-35.234 10.359,-68.028 27.998,-95.761 z" />
      </g>
    </g>
    <g
       id="g24"
       transform="matrix(0.26458333,0,0,0.26458333,38.855955,145.44511)">
      <g
         id="g22">
        <path
           id="path20"
           d="m 472.013,80.794 -21.606,13.679 c 22.664,35.669 35.993,77.832 35.993,123.127 0,45.295 -13.329,87.458 -35.994,123.127 l 21.606,13.679 C 497.195,314.778 512,267.93 512,217.6 512,167.27 497.195,120.422 472.013,80.794 Z" />
      </g>
    </g>
    <g
       id="g30"
       transform="matrix(0.26458333,0,0,0.26458333,38.855955,145.44511)">
      <g
         id="g28">
        <path
           id="path26"
           d="M 61.594,94.473 39.987,80.794 C 14.805,120.422 0,167.27 0,217.6 0,267.93 14.805,314.778 39.987,354.406 L 61.593,340.727 C 38.929,305.058 25.6,262.895 25.6,217.6 25.6,172.305 38.929,130.142 61.594,94.473 Z" />
      </g>
    </g>
    <g
       id="g32"
       transform="matrix(0.26458333,0,0,0.26458333,164.34405,333.67725)" />
    <g
       id="g34"
       transform="matrix(0.26458333,0,0,0.26458333,164.34405,333.67725)" />
    <g
       id="g36"
       transform="matrix(0.26458333,0,0,0.26458333,164.34405,333.67725)" />
    <g
       id="g38"
       transform="matrix(0.26458333,0,0,0.26458333,164.34405,333.67725)" />
    <g
       id="g40"
       transform="matrix(0.26458333,0,0,0.26458333,164.34405,333.67725)" />
    <g
       id="g42"
       transform="matrix(0.26458333,0,0,0.26458333,164.34405,333.67725)" />
    <g
       id="g44"
       transform="matrix(0.26458333,0,0,0.26458333,164.34405,333.67725)" />
    <g
       id="g46"
       transform="matrix(0.26458333,0,0,0.26458333,164.34405,333.67725)" />
    <g
       id="g48"
       transform="matrix(0.26458333,0,0,0.26458333,164.34405,333.67725)" />
    <g
       id="g50"
       transform="matrix(0.26458333,0,0,0.26458333,164.34405,333.67725)" />
    <g
       id="g52"
       transform="matrix(0.26458333,0,0,0.26458333,164.34405,333.67725)" />
    <g
       id="g54"
       transform="matrix(0.26458333,0,0,0.26458333,164.34405,333.67725)" />
    <g
       id="g56"
       transform="matrix(0.26458333,0,0,0.26458333,164.34405,333.67725)" />
    <g
       id="g58"
       transform="matrix(0.26458333,0,0,0.26458333,164.34405,333.67725)" />
    <g
       id="g60"
       transform="matrix(0.26458333,0,0,0.26458333,164.34405,333.67725)" />
  </g>
</svg>
